<svg width="85" height="81" viewBox="0 0 85 81" fill="none" xmlns="http://www.w3.org/2000/svg">
<path d="M83.2444 31.0573L48.9264 51.7878L48.926 68.543C48.9259 71.742 48.7619 75.0938 47.0095 77.7703C44.8949 81 42.5 81 42.5 81C42.5 81 40.1051 81.0003 37.9905 77.7706C36.2381 75.0941 36.0741 71.7422 36.074 68.5433L36.0736 51.7881L1.75564 31.0576C0.665939 30.3993 0 29.2192 0 27.9463C0 25.5364 2.30284 23.7936 4.62283 24.4477L35.5423 33.1648L35.5434 16.0257L26.9164 6.83799C26.2101 6.08584 25.817 5.09295 25.817 4.06132C25.817 1.17621 28.7444 -0.786879 31.4145 0.307698L42.5 4.85188L53.5855 0.307439C56.2556 -0.787139 59.183 1.17596 59.183 4.06106C59.183 5.09269 58.7899 6.08558 58.0836 6.83773L49.4566 16.0254L49.4577 33.1645L76.5 25.5405L80.3772 24.4474C82.6972 23.7933 85 25.5362 85 27.9461C85 29.2189 84.3341 30.399 83.2444 31.0573Z" fill="#151515"/>
</svg>
