<svg width="510" height="510" viewBox="0 0 510 510" fill="none" xmlns="http://www.w3.org/2000/svg">
<path d="M510 255C510 395.833 395.833 510 255 510C114.167 510 0 395.833 0 255C0 114.167 114.167 0 255 0C395.833 0 510 114.167 510 255Z" fill="#CE6363"/>
<path d="M199 200.5C199 217.345 185.345 231 168.5 231C151.655 231 138 217.345 138 200.5C138 183.655 151.655 170 168.5 170C185.345 170 199 183.655 199 200.5Z" fill="#151515"/>
<path d="M371 200.5C371 217.345 357.345 231 340.5 231C323.655 231 310 217.345 310 200.5C310 183.655 323.655 170 340.5 170C357.345 170 371 183.655 371 200.5Z" fill="#151515"/>
<path d="M293 316.5C293 295.237 275.763 278 254.5 278C233.237 278 216 295.237 216 316.5C216 337.763 233.237 355 254.5 355V377C221.087 377 194 349.913 194 316.5C194 283.087 221.087 256 254.5 256C287.913 256 315 283.087 315 316.5C315 349.913 287.913 377 254.5 377V355C275.763 355 293 337.763 293 316.5Z" fill="#151515"/>
</svg>
