<svg width="510" height="510" viewBox="0 0 510 510" fill="none" xmlns="http://www.w3.org/2000/svg">
<path d="M510 255C510 395.833 395.833 510 255 510C114.167 510 0 395.833 0 255C0 114.167 114.167 0 255 0C395.833 0 510 114.167 510 255Z" fill="#7CC687"/>
<path d="M361.117 280.013C366.436 280.281 370.699 284.663 370.082 289.979L369.972 290.888C368.781 300.283 366.054 309.503 361.853 318.269L361.3 319.402C355.504 331.088 347.181 341.715 336.774 350.711L335.762 351.575C325.234 360.454 312.84 367.519 299.242 372.388C285.206 377.413 270.162 380 254.97 380V358C267.684 358 280.216 355.833 291.826 351.676C303.437 347.519 313.799 341.49 322.388 334.066C330.971 326.647 337.579 318.015 342.014 308.761C343.081 306.534 344.017 304.278 344.826 302H165.113C165.923 304.278 166.86 306.534 167.927 308.761C172.361 318.015 178.969 326.648 187.552 334.066C196.14 341.49 206.503 347.519 218.113 351.676C229.724 355.833 242.256 358 254.97 358V380C239.777 380 224.733 377.413 210.697 372.388C197.1 367.519 184.706 360.454 174.178 351.575L173.165 350.711C162.758 341.715 154.435 331.088 148.64 319.402L148.087 318.269C143.886 309.503 141.158 300.283 139.968 290.888L139.857 289.979C139.241 284.664 143.504 280.282 148.822 280.013L149.341 280H360.6L361.117 280.013ZM159.46 170C166.065 170 172.604 171.296 178.706 173.809C184.809 176.321 190.353 180.006 195.023 184.648C199.694 189.291 203.401 194.803 205.929 200.869C207.169 203.845 208.114 206.925 208.756 210.066C209.861 215.479 205.256 220 199.7 220V211.915L189.807 213.936C189.146 212.912 188.59 211.81 188.156 210.672L187.979 210.185C187.783 209.623 187.571 209.066 187.342 208.516C185.825 204.877 183.6 201.574 180.799 198.789C177.997 196.004 174.674 193.793 171.014 192.285C167.352 190.778 163.423 190 159.46 190C155.497 190 151.569 190.778 147.907 192.285C144.247 193.793 140.924 196.004 138.122 198.789C135.321 201.574 133.096 204.877 131.579 208.516C131.35 209.066 131.138 209.623 130.942 210.185L130.764 210.672C128.851 215.686 124.603 220 119.221 220L118.702 219.987C113.382 219.717 109.094 215.31 110.165 210.066C110.807 206.925 111.752 203.845 112.992 200.869C115.52 194.803 119.226 189.291 123.897 184.648C128.567 180.006 134.112 176.321 140.215 173.809C146.317 171.296 152.855 170 159.46 170ZM199.7 220C195.54 220 192.057 217.422 189.807 213.936L199.7 211.915V220ZM351.158 170.004C357.552 170.082 363.874 171.375 369.785 173.809C375.888 176.321 381.433 180.006 386.103 184.648C390.774 189.291 394.48 194.803 397.008 200.869C398.248 203.845 399.193 206.925 399.835 210.066C400.94 215.479 396.335 220 390.779 220C385.397 220 381.149 215.686 379.236 210.672L379.059 210.185C378.863 209.623 378.65 209.066 378.421 208.516C376.904 204.877 374.679 201.574 371.878 198.789C369.076 196.004 365.753 193.793 362.093 192.285C358.66 190.872 354.993 190.1 351.282 190.009L350.54 190C346.577 190 342.648 190.778 338.986 192.285C335.326 193.793 332.003 196.004 329.201 198.789C326.4 201.574 324.175 204.877 322.658 208.516C322.429 209.066 322.217 209.623 322.021 210.185L321.844 210.672C319.931 215.686 315.682 220 310.3 220L309.782 219.987C304.462 219.717 300.173 215.31 301.244 210.066C301.886 206.925 302.831 203.845 304.071 200.869C306.599 194.803 310.306 189.291 314.977 184.648C319.647 180.006 325.191 176.321 331.294 173.809C337.396 171.296 343.935 170 350.54 170L351.158 170.004Z" fill="#151515"/>
</svg>
