<svg width="510" height="510" viewBox="0 0 510 510" fill="none" xmlns="http://www.w3.org/2000/svg">
<path d="M510 255C510 395.833 395.833 510 255 510C114.167 510 0 395.833 0 255C0 114.167 114.167 0 255 0C395.833 0 510 114.167 510 255Z" fill="#E8C366"/>
<path d="M334 305C340.075 305 345 309.925 345 316C345 322.075 340.075 327 334 327H176C169.925 327 165 322.075 165 316C165 309.925 169.925 305 176 305H334Z" fill="#151515"/>
<path d="M199 200.5C199 217.345 185.345 231 168.5 231C151.655 231 138 217.345 138 200.5C138 183.655 151.655 170 168.5 170C185.345 170 199 183.655 199 200.5Z" fill="#151515"/>
<path d="M371 200.5C371 217.345 357.345 231 340.5 231C323.655 231 310 217.345 310 200.5C310 183.655 323.655 170 340.5 170C357.345 170 371 183.655 371 200.5Z" fill="#151515"/>
</svg>
