<svg width="108" height="714" viewBox="0 0 108 714" fill="none" xmlns="http://www.w3.org/2000/svg">
<rect width="108" height="714" rx="5" fill="#5F5F5F"/>
<rect x="51" y="546" width="6" height="42" rx="3" fill="#8C8C8C"/>
<rect x="51" y="462" width="6" height="42" rx="3" fill="#8C8C8C"/>
<rect x="51" y="378" width="6" height="42" rx="3" fill="#8C8C8C"/>
<rect x="51" y="294" width="6" height="42" rx="3" fill="#8C8C8C"/>
<rect x="51" y="210" width="6" height="42" rx="3" fill="#8C8C8C"/>
<rect x="51" y="126" width="6" height="42" rx="3" fill="#8C8C8C"/>
<rect x="51" y="42" width="6" height="42" rx="3" fill="#8C8C8C"/>
<rect x="11" y="661" width="6" height="43" rx="1" fill="#8C8C8C"/>
<rect x="22" y="661" width="6" height="43" rx="1" fill="#8C8C8C"/>
<rect x="33" y="661" width="6" height="43" rx="1" fill="#8C8C8C"/>
<rect x="44" y="661" width="6" height="43" rx="1" fill="#8C8C8C"/>
<rect x="58" y="661" width="6" height="43" rx="1" fill="#8C8C8C"/>
<rect x="69" y="661" width="6" height="43" rx="1" fill="#8C8C8C"/>
<rect x="80" y="661" width="6" height="43" rx="1" fill="#8C8C8C"/>
<rect x="91" y="661" width="6" height="43" rx="1" fill="#8C8C8C"/>
<rect x="15" y="508.5" width="5" height="33" rx="1" fill="#8C8C8C"/>
<rect x="24" y="508.5" width="5" height="33" rx="1" fill="#8C8C8C"/>
<rect x="33" y="508.5" width="5" height="33" rx="1" fill="#8C8C8C"/>
<rect x="69" y="508.5" width="5" height="33" rx="1" fill="#8C8C8C"/>
<rect x="78" y="508.5" width="5" height="33" rx="1" fill="#8C8C8C"/>
<rect x="87" y="508.5" width="5" height="33" rx="1" fill="#8C8C8C"/>
<rect x="80" y="337" width="17" height="39" rx="1" fill="#8C8C8C"/>
<rect x="10" y="337" width="17" height="39" rx="1" fill="#8C8C8C"/>
</svg>
